<?xml version="1.0" standalone="no"?>
<!DOCTYPE svg PUBLIC "-//W3C//DTD SVG 20010904//EN"
 "http://www.w3.org/TR/2001/REC-SVG-20010904/DTD/svg10.dtd">
<svg version="1.0" xmlns="http://www.w3.org/2000/svg"
 width="512.000000pt" height="512.000000pt" viewBox="0 0 512.000000 512.000000"
 preserveAspectRatio="xMidYMid meet">
<metadata>
Created by potrace 1.14, written by Peter Selinger 2001-2017
</metadata>
<g transform="translate(0.000000,512.000000) scale(0.100000,-0.100000)"
fill="#000000" stroke="none">
<path d="M2124 4084 l1 -746 -55 -25 c-30 -14 -86 -40 -125 -58 -202 -93 -287
-133 -454 -212 -62 -29 -115 -53 -116 -53 -2 0 -56 -25 -120 -55 -65 -31 -139
-65 -164 -77 -25 -11 -97 -45 -160 -74 -62 -30 -114 -54 -116 -54 -1 0 -46
-20 -99 -45 -111 -52 -107 -39 -45 -165 21 -44 39 -82 39 -85 0 -2 34 -74 75
-160 41 -87 75 -158 75 -160 0 -1 26 -58 59 -126 32 -68 70 -149 84 -179 14
-30 46 -100 72 -155 54 -115 100 -214 149 -317 18 -40 53 -113 76 -163 44 -93
87 -187 135 -290 15 -33 54 -116 87 -185 33 -69 64 -135 69 -147 10 -26 7 -26
129 30 41 19 104 48 140 65 36 16 99 45 140 65 155 72 377 175 425 196 28 13
57 27 65 32 8 5 22 12 30 16 71 30 277 125 333 154 21 10 41 19 46 19 5 0 19
-28 32 -62 172 -462 690 -692 1149 -511 234 92 425 294 503 531 35 106 42 157
41 297 -1 141 -18 222 -74 342 -92 199 -250 353 -449 440 -108 46 -207 66
-336 67 -139 1 -209 -10 -312 -47 l-41 -16 -15 32 c-103 217 -137 289 -137
292 0 1 -27 58 -59 126 -32 68 -77 162 -98 209 l-40 86 0 332 c0 183 -3 336
-7 340 -4 4 -42 7 -84 7 l-77 0 -1 230 c-1 127 0 237 2 245 3 13 70 15 539 15
353 0 535 3 536 10 3 33 4 712 1 723 -3 9 -197 12 -926 12 l-922 0 0 -746z
m1786 -1913 c72 -15 82 -18 145 -42 243 -91 444 -321 501 -574 20 -90 25 -233
10 -333 -15 -106 -95 -279 -171 -371 -320 -386 -895 -406 -1244 -42 -74 78
-164 234 -186 323 -6 24 -3 29 27 41 18 8 80 37 138 65 58 27 131 61 162 76
32 14 91 41 130 60 159 75 254 118 276 127 13 5 21 12 19 16 -3 5 -16 33 -30
63 -30 66 -89 192 -147 315 -68 145 -100 216 -100 225 0 13 113 46 190 56 25
4 47 8 48 9 7 7 189 -4 232 -14z"/>
<path d="M3229 3578 c-1 -2 -2 -159 -3 -350 l-2 -346 350 1 349 2 0 335 c-1
184 -2 341 -2 348 -1 9 -77 12 -346 12 -190 0 -346 -1 -346 -2z"/>
</g>
</svg>
