<svg width="866" height="117" viewBox="0 0 866 117" fill="none" xmlns="http://www.w3.org/2000/svg">
<g clip-path="url(#clip0_3_1566)">
<path d="M343.17 2.40002V30.08H315.49V114.4H286.85V30.08H259.17V2.40002H343.17Z" fill="black"/>
<path d="M825.13 2.40002C836.43 2.40002 845.93 6.08002 853.61 13.44C861.29 20.8 865.13 30.19 865.13 41.6C865.13 53.01 861.29 62.4 853.61 69.76C845.93 77.12 836.44 80.8 825.13 80.8H810.25V114.4H781.61V2.40002H825.13ZM825.13 53.6C828.33 53.6 831.02 52.48 833.21 50.24C835.39 48 836.49 45.12 836.49 41.6C836.49 38.08 835.4 35.23 833.21 33.04C831.02 30.86 828.33 29.76 825.13 29.76H810.25V53.6H825.13Z" fill="black"/>
<path d="M687.42 2.40002V2.73002C687.52 2.61002 687.63 2.50002 687.75 2.40002H687.42ZM759.42 13.44C751.74 6.08002 742.24 2.40002 730.94 2.40002H717.09C721 6.21002 723.42 11.53 723.42 17.4C723.42 21.95 721.94 26.26 719.37 29.76H730.94C734.14 29.76 736.83 30.85 739.02 33.04C741.2 35.22 742.3 38.08 742.3 41.6C742.3 45.12 741.2 48 739.02 50.24C736.83 52.48 734.14 53.6 730.94 53.6H716.06V33.35C713.8 35.3 711.12 36.77 708.13 37.61C706.26 38.13 704.34 38.4 702.42 38.4C701.52 38.4 700.69 38.35 699.87 38.24C694.98 37.65 690.66 35.39 687.42 32.09V114.4H716.06V80.8H730.94C742.24 80.8 751.74 77.12 759.42 69.76C767.1 62.4 770.94 53.01 770.94 41.6C770.94 30.19 767.1 20.8 759.42 13.44Z" fill="black"/>
<path d="M717.42 17.4C717.42 24.28 712.81 30.06 706.5 31.83C705.2 32.2 703.83 32.4 702.42 32.4C701.81 32.4 701.21 32.36 700.62 32.29C693.18 31.4 687.42 25.08 687.42 17.4C687.42 9.11002 694.13 2.40002 702.42 2.40002C710.71 2.40002 717.42 9.11002 717.42 17.4Z" fill="#FC6D87"/>
<path d="M425.35 2.40002H393.99L427.48 106.14L441.73 77.19L444.73 71.09L425.35 2.40002ZM469.03 2.40002L449.47 71.22L452.46 77.12L467.01 105.78L500.39 2.40002H469.03Z" fill="black"/>
<path d="M464.4 113.88L464.23 114.4H430.15L430.13 114.34L447.11 79.84L464.4 113.88Z" fill="#5A50FC"/>
<path d="M107.42 87.52H150.78V114.4H78.77V2.40002H149.97V29.12H107.41V44.64H145.97V71.04H107.41V87.52H107.42Z" fill="black"/>
<path d="M207.9 116.8C196.06 116.8 186.25 114.3 178.46 109.28C170.67 104.27 165.23 97.49 162.14 88.96L186.62 74.72C190.78 84.64 198.14 89.6 208.7 89.6C217.44 89.6 221.82 87.11 221.82 82.14C221.82 78.86 219.3 76.22 214.26 74.21C212.13 73.33 207.46 71.84 200.22 69.75C189.98 66.76 181.87 62.58 175.9 57.19C169.93 51.81 166.94 44.31 166.94 34.71C166.94 24.37 170.65 15.99 178.06 9.58999C185.47 3.18999 194.73 -0.0100098 205.82 -0.0100098C215.21 -0.0100098 223.53 2.17999 230.78 6.54999C238.03 10.93 243.58 17.27 247.42 25.59L223.42 39.67C219.9 31.35 214.09 27.19 205.98 27.19C202.56 27.19 199.98 27.89 198.22 29.28C196.46 30.67 195.58 32.44 195.58 34.59C195.58 37.06 196.88 39.15 199.49 40.87C202.1 42.59 207.18 44.57 214.74 46.82C220.07 48.74 224.41 50.31 227.78 51.52C231.15 52.73 234.81 54.64 238.76 57.25C242.71 59.86 245.65 63.21 247.57 67.31C249.49 71.41 250.45 76.22 250.45 81.76C250.45 92.75 246.55 101.33 238.77 107.52C230.98 113.71 220.69 116.8 207.89 116.8H207.9Z" fill="black"/>
<path d="M352.37 2.84003H381.01V114.84H352.37V2.84003Z" fill="black"/>
<path d="M652.07 114.4L646.7 98.24H608.58L603.75 114.4H572.75L608.45 2.40002H644.51L681.56 114.4H652.07ZM615.96 73.6H638.52L627.16 35.52L615.96 73.6Z" fill="black"/>
<path d="M563.75 2.40002L550.31 52.64H528.87L534.47 2.40002H563.75Z" fill="black"/>
<path d="M508.42 114.34L508.44 114.4H508.39L508.42 114.34Z" fill="#FF1D25"/>
<path d="M518.87 114.4H518.44L518.61 113.88L518.87 114.4Z" fill="#FF1D25"/>
<path d="M68.8 30.08V2.40002H0V114.4H28.64V76H34.9V48.32H28.64V30.08H68.8Z" fill="black"/>
<path d="M66.9 48.84H40.9V74.84H66.9V48.84Z" fill="#48A9A6"/>
</g>
<defs>
<clipPath id="clip0_3_1566">
<rect width="865.13" height="116.8" fill="white"/>
</clipPath>
</defs>
</svg>
