<svg width="270" height="37" viewBox="0 0 270 37" fill="none" xmlns="http://www.w3.org/2000/svg">
<g clip-path="url(#clip0_3_1413)">
<path d="M107.101 0.749008V9.38771H98.4619V35.7033H89.5236V9.38771H80.8849V0.749008H107.101Z" fill="#FCFCFC"/>
<path d="M257.516 0.749008C261.043 0.749008 264.008 1.89751 266.405 4.1945C268.802 6.4915 270 9.42204 270 12.983C270 16.544 268.802 19.4745 266.405 21.7715C264.008 24.0685 261.046 25.217 257.516 25.217H252.872V35.7033H243.934V0.749008H257.516ZM257.516 16.7281C258.515 16.7281 259.355 16.3786 260.038 15.6795C260.718 14.9804 261.062 14.0816 261.062 12.983C261.062 11.8844 260.722 10.995 260.038 10.3115C259.355 9.63114 258.515 9.28784 257.516 9.28784H252.872V16.7281H257.516Z" fill="#FCFCFC"/>
<path d="M214.538 0.749008V0.851998C214.569 0.814547 214.604 0.780217 214.641 0.749008H214.538ZM237.009 4.1945C234.612 1.89751 231.647 0.749008 228.12 0.749008H223.798C225.018 1.93808 225.773 3.59841 225.773 5.43039C225.773 6.8504 225.312 8.19552 224.509 9.28784H228.12C229.119 9.28784 229.959 9.62802 230.642 10.3115C231.322 10.9919 231.666 11.8844 231.666 12.983C231.666 14.0816 231.322 14.9804 230.642 15.6795C229.959 16.3786 229.119 16.7281 228.12 16.7281H223.476V10.4082C222.771 11.0168 221.935 11.4756 221.002 11.7378C220.418 11.9 219.819 11.9843 219.22 11.9843C218.939 11.9843 218.68 11.9687 218.424 11.9344C216.898 11.7502 215.549 11.0449 214.538 10.015V35.7033H223.476V25.217H228.12C231.647 25.217 234.612 24.0685 237.009 21.7715C239.406 19.4745 240.604 16.544 240.604 12.983C240.604 9.42204 239.406 6.4915 237.009 4.1945Z" fill="#FCFCFC"/>
<path d="M223.901 5.43039C223.901 7.57758 222.462 9.38147 220.493 9.93387C220.087 10.0493 219.66 10.1118 219.22 10.1118C219.029 10.1118 218.842 10.0993 218.658 10.0774C216.336 9.79967 214.538 7.82725 214.538 5.43039C214.538 2.84314 216.632 0.749008 219.22 0.749008C221.807 0.749008 223.901 2.84314 223.901 5.43039Z" fill="#FC6D87"/>
<path d="M132.748 0.749008H122.961L133.413 33.1254L137.86 24.0904L138.797 22.1866L132.748 0.749008ZM146.38 0.749008L140.276 22.2272L141.209 24.0685L145.75 33.0131L156.168 0.749008H146.38Z" fill="#FCFCFC"/>
<path d="M144.935 35.541L144.882 35.7033H134.246L134.24 35.6846L139.539 24.9174L144.935 35.541Z" fill="#5A50FC"/>
<path d="M33.5249 27.3143H47.0572V35.7033H24.5835V0.749008H46.8044V9.0881H33.5218V13.9318H45.556V22.171H33.5218V27.3143H33.5249Z" fill="#FCFCFC"/>
<path d="M64.8839 36.4523C61.1887 36.4523 58.1271 35.6721 55.6959 34.1054C53.2647 32.5418 51.5669 30.4258 50.6026 27.7637L58.2426 23.3195C59.5409 26.4154 61.8379 27.9634 65.1336 27.9634C67.8612 27.9634 69.2282 27.1863 69.2282 25.6352C69.2282 24.6116 68.4417 23.7876 66.8688 23.1603C66.204 22.8857 64.7466 22.4207 62.487 21.7684C59.2912 20.8352 56.7601 19.5307 54.8969 17.8485C53.0338 16.1695 52.1006 13.8288 52.1006 10.8327C52.1006 7.60567 53.2585 4.99034 55.5711 2.99295C57.8837 0.995566 60.7736 -0.00312805 64.2347 -0.00312805C67.1653 -0.00312805 69.7619 0.680353 72.0245 2.04419C74.2872 3.41116 76.0193 5.38982 77.2178 7.98642L69.7275 12.3807C68.629 9.78407 66.8157 8.48577 64.2847 8.48577C63.2173 8.48577 62.4121 8.70423 61.8628 9.13804C61.3136 9.57185 61.0389 10.1243 61.0389 10.7952C61.0389 11.5661 61.4446 12.2184 62.2592 12.7552C63.0738 13.292 64.6592 13.9099 67.0186 14.6121C68.682 15.2113 70.0365 15.7013 71.0883 16.079C72.14 16.4566 73.2823 17.0527 74.515 17.8672C75.7478 18.6818 76.6654 19.7273 77.2646 21.0069C77.8638 22.2865 78.1634 23.7876 78.1634 25.5166C78.1634 28.9465 76.9462 31.6243 74.5182 33.5561C72.087 35.488 68.8755 36.4523 64.8808 36.4523H64.8839Z" fill="#FCFCFC"/>
<path d="M109.972 0.886337H118.91V35.8406H109.972V0.886337Z" fill="#FCFCFC"/>
<path d="M203.506 35.7033L201.83 30.6599H189.933L188.425 35.7033H178.751L189.892 0.749008H201.146L212.709 35.7033H203.506ZM192.236 22.9699H199.277L195.732 11.0855L192.236 22.9699Z" fill="#FCFCFC"/>
<path d="M175.942 0.749008L171.747 16.4285H165.056L166.804 0.749008H175.942Z" fill="#FCFCFC"/>
<path d="M158.674 35.6846L158.681 35.7047H158.664L158.674 35.6846Z" fill="#FF1D25"/>
<path d="M161.935 35.7033H161.801L161.854 35.541L161.935 35.7033Z" fill="#FF1D25"/>
<path d="M21.4719 9.38771V0.749008H0V35.7033H8.93831V23.719H10.892V15.0803H8.93831V9.38771H21.4719Z" fill="#FCFCFC"/>
<path d="M20.8789 15.2426H12.7645V23.3569H20.8789V15.2426Z" fill="#48A9A6"/>
</g>
<defs>
<clipPath id="clip0_3_1413">
<rect width="270" height="36.4523" fill="white"/>
</clipPath>
</defs>
</svg>
